# xmcd CD database file
#
# Track frame offsets:
#	150
#	25821
#	43524
#	74451
#	96801
#	116435
#	137679
#
# Disc length: 2129 seconds
#
# Revision: 0
# Processed by: cddbd v1.5.2PL0 Copyright (c) Steve Scherf et al.
# Submitted via: CDex 1.70beta2
#
DISCID=58084f07
DTITLE=Sam MILTICH and THE CLEARWATER HOT CLUB - Just You, Just Me
DYEAR=2008
DGENRE=Jazz
TTITLE0=Just You, Just Me
TTITLE1=Ain't Misbehavin' 
TTITLE2=Tickle Toe
TTITLE3=You Don't Know Me
TTITLE4=Oh Lady Be Good 
TTITLE5=I Love You For Sentimental Reasons
TTITLE6=How Deep Is The Ocean?
EXTD=YEAR: 2008
EXTT0=
EXTT1=
EXTT2=
EXTT3=
EXTT4=
EXTT5=
EXTT6=
PLAYORDER=
